<svg width="16" height="17" viewBox="0 0 16 17" fill="none" xmlns="http://www.w3.org/2000/svg">
<path d="M9.84161 0.336426C7.90652 0.336426 6.47604 1.1683 5.6084 2.11351V1.10822C5.6084 0.894465 5.43514 0.721123 5.2213 0.721123H0.60719C0.393357 0.721123 0.220093 0.894465 0.220093 1.10822V16.5865C0.220093 16.8003 0.393357 16.9736 0.60719 16.9736H5.4147C5.62853 16.9736 5.8018 16.8003 5.8018 16.5865V8.92835C5.8018 6.34773 6.50275 5.34236 8.30167 5.34236C10.2608 5.34236 10.4165 6.95408 10.4165 9.06112V16.5866C10.4165 16.8004 10.5898 16.9737 10.8036 16.9737H15.6129C15.8268 16.9737 16 16.8004 16 16.5866V8.09648C16 4.25919 15.2683 0.336426 9.84161 0.336426Z" fill="#C0C2C4"/>
</svg>
